# This file uses centimeters as units for non-parametric coordinates.

v -3.310181 -0.319696 0.548159
v -3.364583 -0.319696 0.513529
v -3.431829 -0.319696 0.513529
v -3.486231 -0.319696 0.548159
v -3.507011 -0.319696 0.604192
v -3.486231 -0.319696 0.660225
v -3.431828 -0.319696 0.694855
v -3.364583 -0.319696 0.694855
v -3.310181 -0.319696 0.660225
v -3.289401 -0.319696 0.604192
v -3.230773 -0.271949 0.497611
v -3.334252 -0.271949 0.431741
v -3.462160 -0.271949 0.431741
v -3.565639 -0.271949 0.497611
v -3.605165 -0.271949 0.604192
v -3.565639 -0.271949 0.710772
v -3.462160 -0.271949 0.776643
v -3.334252 -0.271949 0.776643
v -3.230773 -0.271949 0.710772
v -3.191247 -0.271949 0.604192
v -3.167754 -0.197583 0.457496
v -3.310181 -0.197583 0.366834
v -3.486231 -0.197583 0.366834
v -3.628658 -0.197583 0.457496
v -3.683061 -0.197583 0.604192
v -3.628658 -0.197583 0.750887
v -3.486231 -0.197583 0.841550
v -3.310181 -0.197583 0.841550
v -3.167754 -0.197583 0.750887
v -3.113351 -0.197583 0.604192
v -3.127293 -0.103875 0.431741
v -3.294726 -0.103875 0.325161
v -3.501686 -0.103875 0.325161
v -3.669119 -0.103875 0.431741
v -3.733073 -0.103875 0.604192
v -3.669119 -0.103875 0.776643
v -3.501685 -0.103875 0.883223
v -3.294726 -0.103875 0.883223
v -3.127293 -0.103875 0.776643
v -3.063339 -0.103875 0.604192
v -3.113351 0.000000 0.422866
v -3.289401 0.000000 0.310801
v -3.507011 0.000000 0.310801
v -3.683061 0.000000 0.422866
v -3.750306 0.000000 0.604192
v -3.683061 0.000000 0.785517
v -3.507011 0.000000 0.897583
v -3.289401 0.000000 0.897583
v -3.113351 0.000000 0.785517
v -3.046106 0.000000 0.604192
v -3.127293 0.103875 0.431741
v -3.294726 0.103875 0.325161
v -3.501686 0.103875 0.325161
v -3.669119 0.103875 0.431741
v -3.733073 0.103875 0.604192
v -3.669119 0.103875 0.776643
v -3.501685 0.103875 0.883223
v -3.294726 0.103875 0.883223
v -3.127293 0.103875 0.776643
v -3.063339 0.103875 0.604192
v -3.167754 0.197583 0.457496
v -3.310181 0.197583 0.366834
v -3.486231 0.197583 0.366834
v -3.628658 0.197583 0.457496
v -3.683061 0.197583 0.604192
v -3.628658 0.197583 0.750887
v -3.486231 0.197583 0.841550
v -3.310181 0.197583 0.841550
v -3.167754 0.197583 0.750887
v -3.113351 0.197583 0.604192
v -3.230773 0.271949 0.497611
v -3.334252 0.271949 0.431741
v -3.462160 0.271949 0.431741
v -3.565639 0.271949 0.497611
v -3.605165 0.271949 0.604192
v -3.565639 0.271949 0.710772
v -3.462160 0.271949 0.776643
v -3.334252 0.271949 0.776643
v -3.230773 0.271949 0.710772
v -3.191247 0.271949 0.604192
v -3.310181 0.319696 0.548159
v -3.364583 0.319696 0.513529
v -3.431829 0.319696 0.513529
v -3.486231 0.319696 0.548159
v -3.507011 0.319696 0.604192
v -3.486231 0.319696 0.660225
v -3.431828 0.319696 0.694855
v -3.364583 0.319696 0.694855
v -3.310181 0.319696 0.660225
v -3.289401 0.319696 0.604192
v -3.398206 -0.336148 0.604192
v -3.398206 0.336148 0.604192
vt 0.000000 0.100000
vt 0.100000 0.100000
vt 0.200000 0.100000
vt 0.300000 0.100000
vt 0.400000 0.100000
vt 0.500000 0.100000
vt 0.600000 0.100000
vt 0.700000 0.100000
vt 0.800000 0.100000
vt 0.900000 0.100000
vt 1.000000 0.100000
vt 0.000000 0.200000
vt 0.100000 0.200000
vt 0.200000 0.200000
vt 0.300000 0.200000
vt 0.400000 0.200000
vt 0.500000 0.200000
vt 0.600000 0.200000
vt 0.700000 0.200000
vt 0.800000 0.200000
vt 0.900000 0.200000
vt 1.000000 0.200000
vt 0.000000 0.300000
vt 0.100000 0.300000
vt 0.200000 0.300000
vt 0.300000 0.300000
vt 0.400000 0.300000
vt 0.500000 0.300000
vt 0.600000 0.300000
vt 0.700000 0.300000
vt 0.800000 0.300000
vt 0.900000 0.300000
vt 1.000000 0.300000
vt 0.000000 0.400000
vt 0.100000 0.400000
vt 0.200000 0.400000
vt 0.300000 0.400000
vt 0.400000 0.400000
vt 0.500000 0.400000
vt 0.600000 0.400000
vt 0.700000 0.400000
vt 0.800000 0.400000
vt 0.900000 0.400000
vt 1.000000 0.400000
vt 0.000000 0.500000
vt 0.100000 0.500000
vt 0.200000 0.500000
vt 0.300000 0.500000
vt 0.400000 0.500000
vt 0.500000 0.500000
vt 0.600000 0.500000
vt 0.700000 0.500000
vt 0.800000 0.500000
vt 0.900000 0.500000
vt 1.000000 0.500000
vt 0.000000 0.600000
vt 0.100000 0.600000
vt 0.200000 0.600000
vt 0.300000 0.600000
vt 0.400000 0.600000
vt 0.500000 0.600000
vt 0.600000 0.600000
vt 0.700000 0.600000
vt 0.800000 0.600000
vt 0.900000 0.600000
vt 1.000000 0.600000
vt 0.000000 0.700000
vt 0.100000 0.700000
vt 0.200000 0.700000
vt 0.300000 0.700000
vt 0.400000 0.700000
vt 0.500000 0.700000
vt 0.600000 0.700000
vt 0.700000 0.700000
vt 0.800000 0.700000
vt 0.900000 0.700000
vt 1.000000 0.700000
vt 0.000000 0.800000
vt 0.100000 0.800000
vt 0.200000 0.800000
vt 0.300000 0.800000
vt 0.400000 0.800000
vt 0.500000 0.800000
vt 0.600000 0.800000
vt 0.700000 0.800000
vt 0.800000 0.800000
vt 0.900000 0.800000
vt 1.000000 0.800000
vt 0.000000 0.900000
vt 0.100000 0.900000
vt 0.200000 0.900000
vt 0.300000 0.900000
vt 0.400000 0.900000
vt 0.500000 0.900000
vt 0.600000 0.900000
vt 0.700000 0.900000
vt 0.800000 0.900000
vt 0.900000 0.900000
vt 1.000000 0.900000
vt 0.050000 0.000000
vt 0.150000 0.000000
vt 0.250000 0.000000
vt 0.350000 0.000000
vt 0.450000 0.000000
vt 0.550000 0.000000
vt 0.650000 0.000000
vt 0.750000 0.000000
vt 0.850000 0.000000
vt 0.950000 0.000000
vt 0.050000 1.000000
vt 0.150000 1.000000
vt 0.250000 1.000000
vt 0.350000 1.000000
vt 0.450000 1.000000
vt 0.550000 1.000000
vt 0.650000 1.000000
vt 0.750000 1.000000
vt 0.850000 1.000000
vt 0.950000 1.000000
vn 0.306319 -0.915297 -0.261535
vn 0.112926 -0.905518 -0.409006
vn 0.178876 -0.751463 -0.635064
vn 0.487292 -0.771823 -0.408455
vn -0.112926 -0.905517 -0.409006
vn -0.178877 -0.751463 -0.635064
vn -0.306319 -0.915297 -0.261535
vn -0.487292 -0.771823 -0.408455
vn -0.387318 -0.921946 0.000000
vn -0.618690 -0.785635 0.000000
vn -0.306319 -0.915297 0.261535
vn -0.487292 -0.771823 0.408455
vn -0.112926 -0.905517 0.409006
vn -0.178876 -0.751463 0.635064
vn 0.112926 -0.905517 0.409006
vn 0.178877 -0.751463 0.635064
vn 0.306319 -0.915297 0.261535
vn 0.487292 -0.771823 0.408455
vn 0.387318 -0.921946 0.000000
vn 0.618690 -0.785635 0.000000
vn 0.231966 -0.531451 -0.814709
vn 0.639697 -0.556198 -0.530501
vn -0.231966 -0.531451 -0.814709
vn -0.639697 -0.556198 -0.530501
vn -0.819301 -0.573363 0.000000
vn -0.639697 -0.556198 0.530501
vn -0.231966 -0.531451 0.814709
vn 0.231966 -0.531451 0.814709
vn 0.639697 -0.556198 0.530501
vn 0.819301 -0.573363 0.000000
vn 0.264686 -0.273937 -0.924608
vn 0.738196 -0.290837 -0.608671
vn -0.264686 -0.273937 -0.924608
vn -0.738196 -0.290837 -0.608671
vn -0.953046 -0.302826 0.000000
vn -0.738196 -0.290837 0.608671
vn -0.264686 -0.273937 0.924608
vn 0.264686 -0.273937 0.924608
vn 0.738196 -0.290837 0.608671
vn 0.953046 -0.302826 0.000000
vn 0.275635 0.000000 -0.961262
vn 0.772122 0.000000 -0.635474
vn -0.275635 0.000000 -0.961262
vn -0.772122 -0.000000 -0.635474
vn -1.000000 0.000000 0.000000
vn -0.772122 0.000000 0.635474
vn -0.275635 0.000000 0.961262
vn 0.275635 0.000000 0.961262
vn 0.772122 0.000000 0.635474
vn 1.000000 0.000000 0.000000
vn 0.264686 0.273937 -0.924608
vn 0.738196 0.290837 -0.608671
vn -0.264686 0.273937 -0.924608
vn -0.738196 0.290837 -0.608671
vn -0.953046 0.302826 0.000000
vn -0.738196 0.290837 0.608671
vn -0.264686 0.273937 0.924608
vn 0.264686 0.273937 0.924608
vn 0.738196 0.290837 0.608671
vn 0.953046 0.302826 0.000000
vn 0.231966 0.531451 -0.814709
vn 0.639697 0.556198 -0.530501
vn -0.231966 0.531451 -0.814709
vn -0.639697 0.556198 -0.530501
vn -0.819301 0.573363 0.000000
vn -0.639697 0.556198 0.530501
vn -0.231966 0.531451 0.814709
vn 0.231966 0.531451 0.814709
vn 0.639697 0.556198 0.530501
vn 0.819301 0.573363 0.000000
vn 0.178876 0.751463 -0.635064
vn 0.487292 0.771823 -0.408455
vn -0.178877 0.751463 -0.635064
vn -0.487292 0.771823 -0.408455
vn -0.618690 0.785635 0.000000
vn -0.487292 0.771823 0.408455
vn -0.178876 0.751463 0.635064
vn 0.178877 0.751463 0.635064
vn 0.487292 0.771823 0.408455
vn 0.618690 0.785635 0.000000
vn 0.112926 0.905517 -0.409006
vn 0.306319 0.915297 -0.261535
vn -0.112926 0.905517 -0.409006
vn -0.306319 0.915297 -0.261535
vn -0.387318 0.921946 -0.000000
vn -0.306319 0.915297 0.261535
vn -0.112926 0.905517 0.409006
vn 0.112926 0.905517 0.409006
vn 0.306319 0.915297 0.261535
vn 0.387318 0.921946 0.000000
vn -0.000000 -1.000000 -0.000000
vn 0.000000 1.000000 0.000000
f 1/1/1 2/2/2 12/13/3 11/12/4
f 2/2/2 3/3/5 13/14/6 12/13/3
f 3/3/5 4/4/7 14/15/8 13/14/6
f 4/4/7 5/5/9 15/16/10 14/15/8
f 5/5/9 6/6/11 16/17/12 15/16/10
f 6/6/11 7/7/13 17/18/14 16/17/12
f 7/7/13 8/8/15 18/19/16 17/18/14
f 8/8/15 9/9/17 19/20/18 18/19/16
f 9/9/17 10/10/19 20/21/20 19/20/18
f 10/10/19 1/11/1 11/22/4 20/21/20
f 11/12/4 12/13/3 22/24/21 21/23/22
f 12/13/3 13/14/6 23/25/23 22/24/21
f 13/14/6 14/15/8 24/26/24 23/25/23
f 14/15/8 15/16/10 25/27/25 24/26/24
f 15/16/10 16/17/12 26/28/26 25/27/25
f 16/17/12 17/18/14 27/29/27 26/28/26
f 17/18/14 18/19/16 28/30/28 27/29/27
f 18/19/16 19/20/18 29/31/29 28/30/28
f 19/20/18 20/21/20 30/32/30 29/31/29
f 20/21/20 11/22/4 21/33/22 30/32/30
f 21/23/22 22/24/21 32/35/31 31/34/32
f 22/24/21 23/25/23 33/36/33 32/35/31
f 23/25/23 24/26/24 34/37/34 33/36/33
f 24/26/24 25/27/25 35/38/35 34/37/34
f 25/27/25 26/28/26 36/39/36 35/38/35
f 26/28/26 27/29/27 37/40/37 36/39/36
f 27/29/27 28/30/28 38/41/38 37/40/37
f 28/30/28 29/31/29 39/42/39 38/41/38
f 29/31/29 30/32/30 40/43/40 39/42/39
f 30/32/30 21/33/22 31/44/32 40/43/40
f 31/34/32 32/35/31 42/46/41 41/45/42
f 32/35/31 33/36/33 43/47/43 42/46/41
f 33/36/33 34/37/34 44/48/44 43/47/43
f 34/37/34 35/38/35 45/49/45 44/48/44
f 35/38/35 36/39/36 46/50/46 45/49/45
f 36/39/36 37/40/37 47/51/47 46/50/46
f 37/40/37 38/41/38 48/52/48 47/51/47
f 38/41/38 39/42/39 49/53/49 48/52/48
f 39/42/39 40/43/40 50/54/50 49/53/49
f 40/43/40 31/44/32 41/55/42 50/54/50
f 41/45/42 42/46/41 52/57/51 51/56/52
f 42/46/41 43/47/43 53/58/53 52/57/51
f 43/47/43 44/48/44 54/59/54 53/58/53
f 44/48/44 45/49/45 55/60/55 54/59/54
f 45/49/45 46/50/46 56/61/56 55/60/55
f 46/50/46 47/51/47 57/62/57 56/61/56
f 47/51/47 48/52/48 58/63/58 57/62/57
f 48/52/48 49/53/49 59/64/59 58/63/58
f 49/53/49 50/54/50 60/65/60 59/64/59
f 50/54/50 41/55/42 51/66/52 60/65/60
f 51/56/52 52/57/51 62/68/61 61/67/62
f 52/57/51 53/58/53 63/69/63 62/68/61
f 53/58/53 54/59/54 64/70/64 63/69/63
f 54/59/54 55/60/55 65/71/65 64/70/64
f 55/60/55 56/61/56 66/72/66 65/71/65
f 56/61/56 57/62/57 67/73/67 66/72/66
f 57/62/57 58/63/58 68/74/68 67/73/67
f 58/63/58 59/64/59 69/75/69 68/74/68
f 59/64/59 60/65/60 70/76/70 69/75/69
f 60/65/60 51/66/52 61/77/62 70/76/70
f 61/67/62 62/68/61 72/79/71 71/78/72
f 62/68/61 63/69/63 73/80/73 72/79/71
f 63/69/63 64/70/64 74/81/74 73/80/73
f 64/70/64 65/71/65 75/82/75 74/81/74
f 65/71/65 66/72/66 76/83/76 75/82/75
f 66/72/66 67/73/67 77/84/77 76/83/76
f 67/73/67 68/74/68 78/85/78 77/84/77
f 68/74/68 69/75/69 79/86/79 78/85/78
f 69/75/69 70/76/70 80/87/80 79/86/79
f 70/76/70 61/77/62 71/88/72 80/87/80
f 71/78/72 72/79/71 82/90/81 81/89/82
f 72/79/71 73/80/73 83/91/83 82/90/81
f 73/80/73 74/81/74 84/92/84 83/91/83
f 74/81/74 75/82/75 85/93/85 84/92/84
f 75/82/75 76/83/76 86/94/86 85/93/85
f 76/83/76 77/84/77 87/95/87 86/94/86
f 77/84/77 78/85/78 88/96/88 87/95/87
f 78/85/78 79/86/79 89/97/89 88/96/88
f 79/86/79 80/87/80 90/98/90 89/97/89
f 80/87/80 71/88/72 81/99/82 90/98/90
f 2/2/2 1/1/1 91/100/91
f 3/3/5 2/2/2 91/101/91
f 4/4/7 3/3/5 91/102/91
f 5/5/9 4/4/7 91/103/91
f 6/6/11 5/5/9 91/104/91
f 7/7/13 6/6/11 91/105/91
f 8/8/15 7/7/13 91/106/91
f 9/9/17 8/8/15 91/107/91
f 10/10/19 9/9/17 91/108/91
f 1/11/1 10/10/19 91/109/91
f 81/89/82 82/90/81 92/110/92
f 82/90/81 83/91/83 92/111/92
f 83/91/83 84/92/84 92/112/92
f 84/92/84 85/93/85 92/113/92
f 85/93/85 86/94/86 92/114/92
f 86/94/86 87/95/87 92/115/92
f 87/95/87 88/96/88 92/116/92
f 88/96/88 89/97/89 92/117/92
f 89/97/89 90/98/90 92/118/92
f 90/98/90 81/99/82 92/119/92
v -3.240430 0.054311 0.158671
v -3.266578 0.103305 0.158671
v -3.307306 0.142187 0.158671
v -3.358625 0.167151 0.158671
v -3.415513 0.175753 0.158671
v -3.472401 0.167151 0.158671
v -3.523720 0.142187 0.158671
v -3.564448 0.103305 0.158671
v -3.590596 0.054311 0.158671
v -3.599606 -0.000000 0.158671
v -3.590596 -0.054311 0.158671
v -3.564448 -0.103305 0.158671
v -3.523720 -0.142187 0.158671
v -3.472401 -0.167151 0.158671
v -3.415513 -0.175753 0.158671
v -3.358625 -0.167151 0.158671
v -3.307306 -0.142187 0.158671
v -3.266578 -0.103305 0.158671
v -3.240430 -0.054311 0.158671
v -3.231420 -0.000000 0.158671
v -3.240430 0.054311 0.545259
v -3.266578 0.103305 0.545259
v -3.307306 0.142187 0.545259
v -3.358625 0.167151 0.545259
v -3.415513 0.175753 0.545259
v -3.472401 0.167151 0.545259
v -3.523720 0.142187 0.545259
v -3.564448 0.103305 0.545259
v -3.590596 0.054311 0.545259
v -3.599606 0.000000 0.545259
v -3.590596 -0.054311 0.545259
v -3.564448 -0.103305 0.545259
v -3.523720 -0.142187 0.545259
v -3.472401 -0.167151 0.545259
v -3.415513 -0.175753 0.545259
v -3.358625 -0.167151 0.545259
v -3.307306 -0.142187 0.545259
v -3.266578 -0.103305 0.545259
v -3.240430 -0.054311 0.545259
v -3.231420 0.000000 0.545259
v -3.415513 -0.000000 0.158671
v -3.415513 0.000000 0.545259
vt 0.648603 0.107966
vt 0.626409 0.064408
vt 0.591842 0.029841
vt 0.548284 0.007647
vt 0.500000 -0.000000
vt 0.451716 0.007647
vt 0.408159 0.029841
vt 0.373591 0.064409
vt 0.351397 0.107966
vt 0.343750 0.156250
vt 0.351397 0.204534
vt 0.373591 0.248091
vt 0.408159 0.282659
vt 0.451716 0.304853
vt 0.500000 0.312500
vt 0.548284 0.304853
vt 0.591841 0.282659
vt 0.626409 0.248091
vt 0.648603 0.204534
vt 0.656250 0.156250
vt 0.375000 0.312500
vt 0.387500 0.312500
vt 0.400000 0.312500
vt 0.412500 0.312500
vt 0.425000 0.312500
vt 0.437500 0.312500
vt 0.450000 0.312500
vt 0.462500 0.312500
vt 0.475000 0.312500
vt 0.487500 0.312500
vt 0.500000 0.312500
vt 0.512500 0.312500
vt 0.525000 0.312500
vt 0.537500 0.312500
vt 0.550000 0.312500
vt 0.562500 0.312500
vt 0.575000 0.312500
vt 0.587500 0.312500
vt 0.600000 0.312500
vt 0.612500 0.312500
vt 0.625000 0.312500
vt 0.375000 0.688440
vt 0.387500 0.688440
vt 0.400000 0.688440
vt 0.412500 0.688440
vt 0.425000 0.688440
vt 0.437500 0.688440
vt 0.450000 0.688440
vt 0.462500 0.688440
vt 0.475000 0.688440
vt 0.487500 0.688440
vt 0.500000 0.688440
vt 0.512500 0.688440
vt 0.525000 0.688440
vt 0.537500 0.688440
vt 0.550000 0.688440
vt 0.562500 0.688440
vt 0.575000 0.688440
vt 0.587500 0.688440
vt 0.600000 0.688440
vt 0.612500 0.688440
vt 0.625000 0.688440
vt 0.648603 0.795466
vt 0.626409 0.751908
vt 0.591842 0.717341
vt 0.548284 0.695147
vt 0.500000 0.687500
vt 0.451716 0.695147
vt 0.408159 0.717341
vt 0.373591 0.751909
vt 0.351397 0.795466
vt 0.343750 0.843750
vt 0.351397 0.892034
vt 0.373591 0.935591
vt 0.408159 0.970159
vt 0.451716 0.992353
vt 0.500000 1.000000
vt 0.548284 0.992353
vt 0.591841 0.970159
vt 0.626409 0.935591
vt 0.648603 0.892034
vt 0.656250 0.843750
vt 0.500000 0.150000
vt 0.500000 0.837500
vn 0.946675 0.322189 -0.000000
vn 0.795771 0.605598 -0.000000
vn 0.795771 0.605598 -0.000000
vn 0.946675 0.322189 -0.000000
vn 0.569943 0.821685 -0.000000
vn 0.569943 0.821685 -0.000000
vn 0.296272 0.955103 -0.000000
vn 0.296272 0.955103 -0.000000
vn -0.000000 1.000000 -0.000000
vn -0.000000 1.000000 -0.000000
vn -0.296273 0.955103 -0.000000
vn -0.296273 0.955103 -0.000000
vn -0.569943 0.821684 -0.000000
vn -0.569943 0.821684 -0.000000
vn -0.795771 0.605598 -0.000000
vn -0.795771 0.605598 -0.000000
vn -0.946675 0.322190 -0.000000
vn -0.946675 0.322190 -0.000000
vn -1.000000 -0.000000 -0.000000
vn -1.000000 -0.000000 -0.000000
vn -0.946675 -0.322190 0.000000
vn -0.946675 -0.322190 0.000000
vn -0.795771 -0.605598 0.000000
vn -0.795771 -0.605598 0.000000
vn -0.569943 -0.821685 0.000000
vn -0.569943 -0.821685 0.000000
vn -0.296273 -0.955103 0.000000
vn -0.296273 -0.955103 0.000000
vn 0.000000 -1.000000 0.000000
vn 0.000000 -1.000000 0.000000
vn 0.296273 -0.955103 0.000000
vn 0.296273 -0.955103 0.000000
vn 0.569943 -0.821684 0.000000
vn 0.569943 -0.821684 0.000000
vn 0.795771 -0.605598 0.000000
vn 0.795771 -0.605598 0.000000
vn 0.946675 -0.322190 0.000000
vn 0.946675 -0.322190 0.000000
vn 1.000000 -0.000001 0.000000
vn 1.000000 -0.000001 0.000000
vn 0.000000 0.000000 -1.000000
vn 0.000000 0.000000 -1.000000
vn 0.000000 -0.000000 -1.000000
vn 0.000000 -0.000000 -1.000000
vn 0.000000 -0.000000 -1.000000
vn 0.000000 -0.000000 -1.000000
vn 0.000000 -0.000000 -1.000000
vn 0.000000 -0.000000 -1.000000
vn 0.000000 -0.000000 -1.000000
vn 0.000000 0.000000 -1.000000
vn 0.000000 -0.000000 -1.000000
vn 0.000000 -0.000000 -1.000000
vn 0.000000 -0.000000 -1.000000
vn 0.000000 -0.000000 -1.000000
vn 0.000000 0.000000 -1.000000
vn 0.000000 0.000000 -1.000000
vn 0.000000 -0.000000 -1.000000
vn 0.000000 0.000000 -1.000000
vn 0.000000 -0.000000 -1.000000
vn 0.000000 -0.000000 -1.000000
vn 0.000000 -0.000000 -1.000000
vn 0.000000 0.000000 1.000000
vn 0.000000 -0.000000 1.000000
vn 0.000000 -0.000000 1.000000
vn 0.000000 -0.000000 1.000000
vn 0.000000 0.000000 1.000000
vn 0.000000 0.000000 1.000000
vn 0.000000 0.000000 1.000000
vn 0.000000 -0.000000 1.000000
vn 0.000000 -0.000000 1.000000
vn 0.000000 0.000000 1.000000
vn 0.000000 0.000000 1.000000
vn 0.000000 -0.000000 1.000000
vn 0.000000 0.000000 1.000000
vn 0.000000 0.000000 1.000000
vn 0.000000 0.000000 1.000000
vn 0.000000 -0.000000 1.000000
vn 0.000000 -0.000000 1.000000
vn 0.000000 0.000000 1.000000
vn 0.000000 -0.000000 1.000000
vn 0.000000 -0.000000 1.000000
vn 0.000000 0.000000 1.000000
f 93/140/93 94/141/94 114/162/95 113/161/96
f 94/141/94 95/142/97 115/163/98 114/162/95
f 95/142/97 96/143/99 116/164/100 115/163/98
f 96/143/99 97/144/101 117/165/102 116/164/100
f 97/144/101 98/145/103 118/166/104 117/165/102
f 98/145/103 99/146/105 119/167/106 118/166/104
f 99/146/105 100/147/107 120/168/108 119/167/106
f 100/147/107 101/148/109 121/169/110 120/168/108
f 101/148/109 102/149/111 122/170/112 121/169/110
f 102/149/111 103/150/113 123/171/114 122/170/112
f 103/150/113 104/151/115 124/172/116 123/171/114
f 104/151/115 105/152/117 125/173/118 124/172/116
f 105/152/117 106/153/119 126/174/120 125/173/118
f 106/153/119 107/154/121 127/175/122 126/174/120
f 107/154/121 108/155/123 128/176/124 127/175/122
f 108/155/123 109/156/125 129/177/126 128/176/124
f 109/156/125 110/157/127 130/178/128 129/177/126
f 110/157/127 111/158/129 131/179/130 130/178/128
f 111/158/129 112/159/131 132/180/132 131/179/130
f 112/159/131 93/160/93 113/181/96 132/180/132
f 94/121/133 93/120/134 133/202/135
f 95/122/136 94/121/133 133/202/135
f 96/123/137 95/122/136 133/202/135
f 97/124/138 96/123/137 133/202/135
f 98/125/139 97/124/138 133/202/135
f 99/126/140 98/125/139 133/202/135
f 100/127/141 99/126/140 133/202/135
f 101/128/142 100/127/141 133/202/135
f 102/129/143 101/128/142 133/202/135
f 103/130/144 102/129/143 133/202/135
f 104/131/145 103/130/144 133/202/135
f 105/132/146 104/131/145 133/202/135
f 106/133/147 105/132/146 133/202/135
f 107/134/148 106/133/147 133/202/135
f 108/135/149 107/134/148 133/202/135
f 109/136/150 108/135/149 133/202/135
f 110/137/151 109/136/150 133/202/135
f 111/138/152 110/137/151 133/202/135
f 112/139/153 111/138/152 133/202/135
f 93/120/134 112/139/153 133/202/135
f 113/200/154 114/199/155 134/203/156
f 114/199/155 115/198/157 134/203/156
f 115/198/157 116/197/158 134/203/156
f 116/197/158 117/196/159 134/203/156
f 117/196/159 118/195/160 134/203/156
f 118/195/160 119/194/161 134/203/156
f 119/194/161 120/193/162 134/203/156
f 120/193/162 121/192/163 134/203/156
f 121/192/163 122/191/164 134/203/156
f 122/191/164 123/190/165 134/203/156
f 123/190/165 124/189/166 134/203/156
f 124/189/166 125/188/167 134/203/156
f 125/188/167 126/187/168 134/203/156
f 126/187/168 127/186/169 134/203/156
f 127/186/169 128/185/170 134/203/156
f 128/185/170 129/184/171 134/203/156
f 129/184/171 130/183/172 134/203/156
f 130/183/172 131/182/173 134/203/156
f 131/182/173 132/201/174 134/203/156
f 132/201/174 113/200/154 134/203/156
v -4.432592 -4.726750 0.282750
v 0.021408 -4.726750 0.282750
v -4.432592 4.726750 0.282750
v 0.021408 4.726750 0.282750
v -4.432592 4.726750 -0.282750
v 0.021408 4.726750 -0.282750
v -4.432592 -4.726750 -0.282750
v 0.021408 -4.726750 -0.282750
vt 0.375000 0.000000
vt 0.625000 0.000000
vt 0.375000 0.250000
vt 0.625000 0.250000
vt 0.375000 0.500000
vt 0.625000 0.500000
vt 0.375000 0.750000
vt 0.625000 0.750000
vt 0.375000 1.000000
vt 0.625000 1.000000
vt 0.875000 0.000000
vt 0.875000 0.250000
vt 0.125000 0.000000
vt 0.125000 0.250000
vn 0.000000 0.000000 1.000000
vn 0.000000 0.000000 1.000000
vn 0.000000 0.000000 1.000000
vn 0.000000 0.000000 1.000000
vn 0.000000 1.000000 0.000000
vn 0.000000 1.000000 0.000000
vn 0.000000 1.000000 0.000000
vn 0.000000 1.000000 0.000000
vn 0.000000 0.000000 -1.000000
vn 0.000000 0.000000 -1.000000
vn 0.000000 0.000000 -1.000000
vn 0.000000 0.000000 -1.000000
vn 0.000000 -1.000000 0.000000
vn 0.000000 -1.000000 0.000000
vn 0.000000 -1.000000 0.000000
vn 0.000000 -1.000000 0.000000
vn 1.000000 0.000000 0.000000
vn 1.000000 0.000000 0.000000
vn 1.000000 0.000000 0.000000
vn 1.000000 0.000000 0.000000
vn -1.000000 0.000000 0.000000
vn -1.000000 0.000000 0.000000
vn -1.000000 0.000000 0.000000
vn -1.000000 0.000000 0.000000
f 135/204/175 136/205/176 138/207/177 137/206/178
f 137/206/179 138/207/180 140/209/181 139/208/182
f 139/208/183 140/209/184 142/211/185 141/210/186
f 141/210/187 142/211/188 136/213/189 135/212/190
f 136/205/191 142/214/192 140/215/193 138/207/194
f 141/216/195 135/204/196 137/206/197 139/217/198
